PathFileType	4	(X/Y/Z)	/Users/itak/Documents/Research/Walk-IL/dataset/trc/00177_00008.trc
DataRate	CameraRate	NumFrames	NumMarkers	Units	OrigDataRate	OrigDataStartFrame	OrigNumFrames
100.000000	100.000000	4	53	mm	100.000000	220	588
Frame#	Time	RPSI			LPSI			L3			STRN			T10			C7			CLAV			RBAK			LBAK			LSHO			LUPA			LAEL			LAOL			LWTS			LWPS			LFRA			LIFD			LHPS			LHTS			RSHO			RUPA			RAEL			RAOL			RWTS			RWPS			RFRA			RIFD			RHTS			RHPS			RBHD			LFHD			RFHD			LBHD			LHIP			RHIP			RASI			LASI			LKNE			LTHI			LANK			LTIP			LTOE			LMT1			LMT5			LHEE			RKNE			RTHI			RANK			RTIP			RTOE			RMT1			RMT5			RHEE			
		X1	Y1	Z1	X2	Y2	Z2	X3	Y3	Z3	X4	Y4	Z4	X5	Y5	Z5	X6	Y6	Z6	X7	Y7	Z7	X8	Y8	Z8	X9	Y9	Z9	X10	Y10	Z10	X11	Y11	Z11	X12	Y12	Z12	X13	Y13	Z13	X14	Y14	Z14	X15	Y15	Z15	X16	Y16	Z16	X17	Y17	Z17	X18	Y18	Z18	X19	Y19	Z19	X20	Y20	Z20	X21	Y21	Z21	X22	Y22	Z22	X23	Y23	Z23	X24	Y24	Z24	X25	Y25	Z25	X26	Y26	Z26	X27	Y27	Z27	X28	Y28	Z28	X29	Y29	Z29	X30	Y30	Z30	X31	Y31	Z31	X32	Y32	Z32	X33	Y33	Z33	X34	Y34	Z34	X35	Y35	Z35	X36	Y36	Z36	X37	Y37	Z37	X38	Y38	Z38	X39	Y39	Z39	X40	Y40	Z40	X41	Y41	Z41	X42	Y42	Z42	X43	Y43	Z43	X44	Y44	Z44	X45	Y45	Z45	X46	Y46	Z46	X47	Y47	Z47	X48	Y48	Z48	X49	Y49	Z49	X50	Y50	Z50	X51	Y51	Z51	X52	Y52	Z52	X53	Y53	Z53	

221	2.2	378.9527893066406	1058.533935546875	278.8533325195312	371.452880859375	1057.95263671875	155.6997985839844	378.08837890625	1098.573974609375	216.9440155029297	652.7344970703125	1294.277221679688	187.0289154052734	356.0426635742188	1260.924194335938	205.1882934570312	436.485595703125	1525.820556640625	186.9505004882812	631.4003295898438	1409.858032226562	178.6927185058594	367.4423828125	1355.381469726562	301.0714416503906	422.1109924316406	1502.316650390625	87.02830505371094	494.3392639160156	1486.202270507812	4.23585319519043	451.6618347167969	1357.060180664062	-68.38066864013672	460.2486877441406	1138.806274414062	-92.35634613037109	419.9529418945312	1119.914672851562	-16.36292266845703	610.3772583007812	931.2325439453125	-65.45626831054688	531.9664916992188	892.1497802734375	-98.50129699707031	488.7863464355469	1029.18798828125	-105.6919555664062	670.7568969726562	756.3146362304688	-45.86299133300781	568.8031005859375	828.743896484375	-95.22794342041016	636.1474609375	857.7088623046875	-86.40200805664062	510.7829284667969	1498.371948242188	364.4024047851562	490.7342529296875	1432.039184570312	433.3991394042969	456.6672668457031	1145.368896484375	483.6731872558594	457.67236328125	1136.884765625	386.3091125488281	590.3436279296875	915.8457641601562	476.7374877929688	513.677734375	900.3965454101562	517.703857421875	477.710205078125	1072.7138671875	503.5315856933594	604.5269775390625	729.4508056640625	452.3757934570312	615.103759765625	822.0611572265625	487.3364562988281	540.4671630859375	816.538818359375	516.1885375976562	501.8128051757812	1674.457153320312	269.2161865234375	629.76025390625	1735.8359375	103.0560913085938	659.5046997070312	1736.867919921875	228.9202728271484	460.2997436523438	1680.630249023438	137.1679077148438	460.6048889160156	990.9877319335938	30.82303047180176	537.8370971679688	1020.129272460938	394.3827819824219	614.8241577148438	1043.43603515625	331.0279541015625	590.8876953125	1027.425537109375	72.40061187744141	505.2274169921875	493.0871276855469	77.50112152099609	501.1302185058594	635.6551513671875	45.68722152709961	369.6393432617188	41.30085372924805	98.80010986328125	444.6168212890625	267.4886474609375	77.12735748291016	589.332763671875	41.1219482421875	106.6496658325195	544.908447265625	43.50053024291992	157.1967315673828	474.1254272460938	29.88735771179199	48.09027862548828	324.5656127929688	46.04051971435547	171.8003997802734	717.6882934570312	552.1080932617188	394.5703125	645.83251953125	814.13427734375	407.6690979003906	628.5786743164062	61.74362945556641	421.4843444824219	733.6026000976562	427.8883666992188	391.6996765136719	850.2552490234375	80.71773529052734	422.5536804199219	804.2796020507812	67.50202178955078	370.1024780273438	733.3373413085938	62.59362411499023	473.3910522460938	589.0584106445312	58.49392700195312	346.9900817871094	
222	2.21	373.0589599609375	1059.786499023438	278.9914245605469	365.4441528320312	1058.910400390625	155.8631591796875	372.0091857910156	1099.656494140625	216.9821624755859	646.2127075195312	1296.058471679688	186.8116760253906	349.6828308105469	1261.690673828125	204.8668823242188	429.1761779785156	1526.800659179688	186.2174987792969	624.4844970703125	1411.533203125	178.3116302490234	360.1877746582031	1356.799682617188	300.4997863769531	414.9036560058594	1503.04833984375	86.4207763671875	487.2214965820312	1487.212768554688	3.731110334396362	444.8368225097656	1358.09375	-68.98354339599609	453.4223022460938	1140.015380859375	-93.08751678466797	413.2366638183594	1121.229125976562	-17.00502014160156	600.4461669921875	929.9182739257812	-67.65040588378906	521.1502075195312	892.390380859375	-100.4565963745117	480.4025573730469	1030.2099609375	-106.9203491210938	657.376708984375	753.6405029296875	-48.76005172729492	556.7528076171875	828.2660522460938	-97.49854278564453	624.7006225585938	855.8567504882812	-88.88622283935547	503.3629760742188	1500.041748046875	363.7332763671875	483.2013854980469	1433.868408203125	432.79345703125	448.7509155273438	1147.164916992188	482.5851135253906	450.3083801269531	1138.841064453125	385.1348266601562	581.6376953125	917.1363525390625	476.0807800292969	504.7996215820312	901.9902954101562	516.77587890625	469.4264526367188	1074.450317382812	502.4537963867188	595.1340942382812	730.6742553710938	451.5137329101562	605.959716796875	823.2089233398438	486.63916015625	531.2262573242188	817.9760131835938	515.2644653320312	494.534912109375	1676.875122070312	267.2994079589844	622.760986328125	1736.130004882812	100.620475769043	652.3946533203125	1738.532592773438	226.4813537597656	453.1596374511719	1681.66455078125	135.1707458496094	453.861328125	991.8168334960938	30.88304901123047	531.994384765625	1021.630981445312	394.3122253417969	608.8169555664062	1044.982543945312	330.7666625976562	584.7914428710938	1028.600341796875	72.31279754638672	501.0925903320312	494.0646667480469	77.46231842041016	496.0840148925781	636.51904296875	45.75380325317383	369.4718322753906	41.07057571411133	98.61268615722656	442.4334106445312	268.0656127929688	76.93330383300781	589.2579345703125	41.16812515258789	106.5775833129883	544.8358154296875	43.66261672973633	157.0252075195312	474.1047668457031	29.71344566345215	47.89220809936523	324.4790344238281	45.8568000793457	171.6103973388672	711.6832275390625	552.9791870117188	395.0572814941406	639.85888671875	815.4947509765625	407.1619873046875	606.2777709960938	65.58681488037109	422.1146545410156	724.06689453125	427.9775695800781	392.6793212890625	828.0848999023438	79.66580963134766	424.9884643554688	782.4876708984375	67.09482574462891	372.1246032714844	710.4264526367188	64.23029327392578	474.8790283203125	567.3643798828125	62.96289443969727	347.220947265625	
223	2.22	367.2200622558594	1060.871459960938	279.211669921875	359.4931335449219	1059.734497070312	156.1132659912109	365.9999694824219	1100.59375	217.1220397949219	639.7613525390625	1297.712768554688	186.6248779296875	343.3681640625	1262.31494140625	204.6985015869141	421.8895568847656	1527.650390625	185.6196899414062	617.6104125976562	1413.06396484375	177.9827728271484	352.9690551757812	1358.139526367188	300.1029052734375	407.6806030273438	1503.637084960938	85.95285034179688	480.0697326660156	1488.081665039062	3.334208488464355	437.9664611816406	1358.955932617188	-69.43897247314453	446.646240234375	1141.079345703125	-93.70639801025391	406.5918579101562	1122.37548828125	-17.53620719909668	590.401123046875	928.409912109375	-69.76308441162109	510.2325744628906	892.55419921875	-102.4468841552734	472.0360717773438	1031.119506835938	-108.0709686279297	643.5796508789062	750.721923828125	-51.59810256958008	544.5025024414062	827.7048950195312	-99.81405639648438	613.0545043945312	853.7928466796875	-91.29286193847656	496.0388793945312	1501.538696289062	363.1748657226562	475.7698669433594	1435.532470703125	432.3016357421875	440.8647766113281	1148.814819335938	481.7444763183594	442.9794006347656	1140.616943359375	384.227783203125	573.1499633789062	918.3958740234375	475.614501953125	496.1340637207031	903.4505615234375	516.0234375	461.2251281738281	1076.033081054688	501.6158142089844	586.2123413085938	731.9137573242188	450.7880554199219	597.1486206054688	824.37158203125	486.1154174804688	522.3148193359375	819.3118896484375	514.488525390625	487.2097778320312	1679.187744140625	265.4638671875	615.6829833984375	1736.275512695312	98.26715087890625	645.2305908203125	1740.079223632812	224.1052703857422	445.9543151855469	1682.55908203125	133.2756805419922	447.2778015136719	992.527587890625	31.01871871948242	526.2474975585938	1022.969177246094	394.3235473632812	602.902099609375	1046.385986328125	330.5806884765625	578.7618408203125	1029.642211914062	72.30915069580078	497.0813903808594	494.9542846679688	77.45814514160156	491.1860046386719	637.2991333007812	45.85829925537109	369.2792358398438	40.79459762573242	98.38754272460938	440.2948303222656	268.5736389160156	76.75326538085938	589.14111328125	41.21635437011719	106.5133666992188	544.7322387695312	43.83706665039062	156.860595703125	474.0677185058594	29.56072044372559	47.69113159179688	324.3413696289062	45.62681198120117	171.3934326171875	705.5867919921875	553.5408325195312	395.5025634765625	633.9853515625	816.6332397460938	406.7862854003906	583.6279296875	69.84850311279297	423.0425415039062	714.3546142578125	427.8777160644531	393.5281066894531	805.407958984375	78.59921264648438	426.6680297851562	759.9334716796875	66.75957489013672	373.6476135253906	687.3327026367188	66.00218963623047	476.1090393066406	544.9852905273438	67.95701599121094	347.8221130371094	
224	2.23	361.4158020019531	1061.755981445312	279.5122680664062	353.5856323242188	1060.409057617188	156.4421844482422	360.06103515625	1101.359741210938	217.3613433837891	633.3698120117188	1299.20361328125	186.4716186523438	337.089111328125	1262.796020507812	204.6768035888672	414.6463928222656	1528.360229492188	185.1537628173828	610.7824096679688	1414.419799804688	177.7042846679688	345.8398132324219	1359.343505859375	299.8750610351562	400.4685668945312	1504.084716796875	85.61459350585938	472.9032592773438	1488.786865234375	3.035550355911255	431.0652465820312	1359.62353515625	-69.75142669677734	439.889892578125	1141.974365234375	-94.21208953857422	399.9834594726562	1123.33056640625	-17.9525260925293	580.2396850585938	926.7280883789062	-71.79104614257812	499.2366638183594	892.6386108398438	-104.4543609619141	463.674560546875	1031.896240234375	-109.1403961181641	629.4431762695312	747.6251831054688	-54.39849090576172	532.1011962890625	827.075439453125	-102.1673049926758	601.2396850585938	851.5638427734375	-93.62728881835938	488.8311767578125	1502.842163085938	362.7266845703125	468.4683227539062	1437.004272460938	431.9237670898438	433.0252380371094	1150.295776367188	481.1535339355469	435.6672668457031	1142.186157226562	383.5910339355469	564.8861083984375	919.5905151367188	475.3264465332031	487.7029418945312	904.7548217773438	515.4585571289062	453.1356811523438	1077.441162109375	501.0257568359375	577.7444458007812	733.1280517578125	450.2158508300781	588.6749267578125	825.515380859375	485.7623291015625	513.7423095703125	820.5242309570312	513.8790283203125	479.8487854003906	1681.3564453125	263.7123413085938	608.5208740234375	1736.277954101562	95.99721527099609	638.0078125	1741.507690429688	221.7924957275391	438.6925048828125	1683.27685546875	131.4800109863281	440.9016723632812	993.1310424804688	31.23951148986816	520.5784912109375	1024.110717773438	394.4288635253906	597.0632934570312	1047.6259765625	330.4923706054688	572.8040161132812	1030.549926757812	72.39590454101562	493.1898193359375	495.7660522460938	77.48898315429688	486.4312744140625	638.0068359375	45.9964485168457	369.0701904296875	40.47481155395508	98.11894989013672	438.1968994140625	269.0132751464844	76.59060668945312	588.9766235351562	41.26364135742188	106.4605941772461	544.5873413085938	44.02666854858398	156.7053833007812	474.0142517089844	29.42544937133789	47.49139785766602	324.1506042480469	45.35597991943359	171.1511535644531	699.36376953125	553.7692260742188	395.897216796875	628.2213134765625	817.5149536132812	406.5542602539062	560.7235717773438	74.51095581054688	424.2664794921875	704.4431762695312	427.5771484375	394.2467346191406	782.3116455078125	77.56749725341797	427.6854553222656	736.7251586914062	66.52587127685547	374.7259826660156	664.1334228515625	67.90956878662109	477.1228637695312	522.0531616210938	73.45175170898438	348.7643737792969	
